<?xml version="1.0" standalone="no"?><!DOCTYPE svg PUBLIC "-//W3C//DTD SVG 1.1//EN" "http://www.w3.org/Graphics/SVG/1.1/DTD/svg11.dtd"><svg class="icon" width="128px" height="128.00px" viewBox="0 0 1024 1024" version="1.1" xmlns="http://www.w3.org/2000/svg"><path fill="#eeeeee" d="M127.658667 492.885333c0-51.882667 10.24-101.717333 30.378666-149.162666s47.786667-88.064 81.92-122.538667 75.093333-61.781333 122.538667-81.92 96.938667-30.378667 149.162667-30.378667 101.717333 10.24 149.162666 30.378667 88.405333 47.786667 122.88 81.92 61.781333 75.093333 81.92 122.538667 30.378667 96.938667 30.378667 149.162666-10.24 101.717333-30.378667 149.162667-47.786667 88.405333-81.92 122.88-75.093333 61.781333-122.88 81.92-97.28 30.378667-149.162666 30.378667-101.717333-10.24-149.162667-30.378667-88.064-47.786667-122.538667-81.92-61.781333-75.093333-81.92-122.88-30.378667-96.938667-30.378666-149.162667z m280.576 0c0 141.653333 27.648 256 82.602666 343.04 5.12 0.341333 11.946667 0.341333 21.162667 0.341334 46.762667 0 91.136-9.216 133.461333-27.306667s78.848-42.666667 109.568-73.386667 54.954667-67.242667 73.386667-109.568 27.306667-86.698667 27.306667-133.461333c0-46.421333-9.216-90.794667-27.306667-133.12s-42.666667-78.848-73.386667-109.568-67.242667-54.954667-109.568-73.386667-86.698667-27.306667-133.461333-27.306666c-7.850667 0-14.336 0-18.432 0.341333-57.002667 108.202667-85.333333 222.549333-85.333333 343.381333z" /></svg>