<?xml version="1.0" standalone="no"?><!DOCTYPE svg PUBLIC "-//W3C//DTD SVG 1.1//EN" "http://www.w3.org/Graphics/SVG/1.1/DTD/svg11.dtd"><svg class="icon" width="128px" height="128.00px" viewBox="0 0 1024 1024" version="1.1" xmlns="http://www.w3.org/2000/svg"><path fill="#eeeeee" d="M127.658667 492.885333c0-51.882667 10.24-101.717333 30.378666-149.162666s47.786667-88.064 81.92-122.538667 75.093333-61.781333 122.538667-81.92 96.938667-30.378667 149.162667-30.378667 101.717333 10.24 149.162666 30.378667 88.405333 47.786667 122.88 81.92 61.781333 75.093333 81.92 122.538667 30.378667 96.938667 30.378667 149.162666-10.24 101.717333-30.378667 149.162667-47.786667 88.405333-81.92 122.88-75.093333 61.781333-122.88 81.92-97.28 30.378667-149.162666 30.378667-101.717333-10.24-149.162667-30.378667-88.064-47.786667-122.538667-81.92-61.781333-75.093333-81.92-122.88-30.378667-96.938667-30.378666-149.162667z m40.96 0c0 45.738667 8.874667 89.429333 26.282666 131.413334s41.301333 78.165333 70.997334 108.885333 65.536 55.296 106.837333 73.728 84.650667 28.330667 130.048 29.696c-58.368-79.189333-87.381333-193.877333-87.381333-343.381333 0-63.829333 7.850667-125.269333 23.552-184.661334s37.888-112.298667 66.56-158.378666c-61.44 1.024-117.76 17.066667-169.301334 48.128s-92.16 72.704-122.197333 124.586666-45.397333 108.885333-45.397333 169.984z" /></svg>